<?xml version="1.0" encoding="utf-8"?>
<!-- Generator: Adobe Illustrator 28.0.0, SVG Export Plug-In . SVG Version: 6.00 Build 0)  -->
<svg version="1.1" id="Logo" xmlns="http://www.w3.org/2000/svg" xmlns:xlink="http://www.w3.org/1999/xlink" x="0px" y="0px"
	 viewBox="0 0 300 300" style="enable-background:new 0 0 300 300;" xml:space="preserve">
<style type="text/css">
	.st0{fill:#3FA9F5;}
</style>
<g id="Sandbox">
	<path class="st0" d="M203.61,133.79c0,10-0.08,19.14,0.05,28.29c0.03,2.25-0.99,3.24-2.78,4.13c-15.92,7.9-31.83,15.81-47.69,23.83
		c-2.03,1.03-3.65,0.96-5.6-0.02c-15.87-8-31.75-15.96-47.67-23.86c-2.36-1.17-3.56-2.89-3.57-5.45c-0.02-7.32-0.04-14.64,0-21.96
		c0.02-3.55,1.22-4.56,4.8-2.75c14.95,7.56,30.08,14.76,45.01,22.36c3.18,1.62,5.64,1.53,8.71-0.04
		C170.8,150.17,186.8,142.22,203.61,133.79z"/>
	<path class="st0" d="M102.99,128.47c11.38-5.11,22.12-8.85,31.71-14.53c11.08-6.56,20.81-6.05,31.72,0.09
		c9.58,5.39,20.01,9.27,31.22,14.35c-8.13,4.1-15.3,7.72-22.48,11.33c-1.47,0.74-2.59-0.38-3.7-0.92
		c-5.53-2.68-11.09-5.35-16.46-8.34c-3.08-1.72-5.68-1.87-8.82-0.11c-5.36,3-10.98,5.54-16.41,8.43c-2.26,1.2-4.23,1.3-6.52,0.09
		C116.9,135.5,110.46,132.29,102.99,128.47z"/>
	<path class="st0" d="M135.08,144.08c5.06-2.56,9.5-4.73,13.86-7.05c1.44-0.77,2.55-0.24,3.73,0.35c4,2.01,7.99,4.05,12,6.09
		C158.61,152.73,148,153.13,135.08,144.08z"/>
</g>
<path class="st0" d="M287.6,143.9c-0.03-1.33-0.07-2.72-0.1-4.19l-39.02-12.73l-15.2-38.01l20.06-33.43l-11.89-11.89L208.44,62.5
	h-8.63l-34.07-12.55l-8.87-38.45h-16.66l-10.14,38.86L90.64,65.62L55.68,44.82L42.55,58.87c3.4,5.24,6.48,9.17,9.11,12.52
	c13.41,17.13,14.75,25.8-1.35,54.22l-2.35,4.14l-35.71,11.08V156l37.64,12.83l12.56,40.2L42.8,240.16l12.1,12.1l33.63-16.81
	l40.6,17.57l11.27,35.48h16.33l12.53-35.91l38.35-17.32l33.45,18.4l14.06-15.01l-21.01-32.77l15.7-39.56l5.31-1.76
	c11.15-3.71,19.4-5.73,25.42-7.21c2.55-0.63,5.35-1.32,7.13-1.87C287.83,152.92,287.71,148.35,287.6,143.9z M198.59,192.79
	c-40.08,51.34-128.8,16.42-110.89-59.08c5.37-22.64,32.08-45.27,54.99-47.72C192.85,80.62,236.14,144.69,198.59,192.79z"/>
</svg>
